<mxfile host="app.diagrams.net" modified="2023-08-01T16:44:48.087Z" agent="Mozilla/5.0 (Windows NT 10.0; Win64; x64) AppleWebKit/537.36 (KHTML, like Gecko) Chrome/115.0.0.0 Safari/537.36" version="21.6.6" etag="lRQLy3TExha_PLyRsab6" type="github">
  <diagram name="第 1 页" id="xLccCOGR0xRDpFdZ9tEq">
    <mxGraphModel>
      <root>
        <mxCell id="0" />
        <mxCell id="1" parent="0" />
      </root>
    </mxGraphModel>
  </diagram>
</mxfile>
